PathFileType	4	(X/Y/Z)	C:\Users\°ÂÌØÂü\Desktop\20210112\bx_y_10_1801-Unnamed.trc
DataRate	CameraRate	NumFrames	NumMarkers	Units	OrigDataRate	OrigDataStartFrame	OrigNumFrames
50.00	50.00	       8	0	mm	50.00	59	       468
Frame#	Time	
		

59	1.160	-533.47571	-81.44167	1350.44812	-533.68750	261.99020	1364.24048	-761.28668	216.01497	972.69586	-781.64752	-74.13541	826.89655	-775.46277	-2.67389	959.78729	-684.70276	-19.75213	806.22754	-758.08569	291.61810	834.75494	-677.21118	222.96808	814.01263	-670.84918	266.00650	609.23303	-625.05701	61.10358	570.26355				-611.42389	-3.76191	503.82480	-647.76556	264.55197	559.31964	-594.40576	222.54726	514.21497	-696.30859	268.63559	492.19827	-964.88971	102.97779	1003.41937	-665.00488	-70.83461	160.27148	-704.03833	154.18773	212.54790	-765.63922	225.53198	204.98605	-623.57355	-81.08501	156.85529	-882.48578	296.13718	144.66689	-676.24335	51.91021	159.71675	-604.35297	16.81182	169.50246	-562.28284	-40.80901	164.22519	-675.02844	172.74094	157.21901	-594.95215	222.87395	174.12169	-666.14282	299.03763	160.58362	-628.78168	306.37631	161.29927	-560.70831	261.83694	165.49510	-528.47626	304.33966	146.82811	-323.75168	80.50212	1566.05139	-720.45776	291.37201	708.76227	-517.62500	-72.30761	142.86942	-794.89099	172.86211	185.45604				-765.05902	-10.04956	208.32651	-795.42188	51.62151	175.22099	-717.62000	-46.95376	482.41986	-876.03320	-78.59757	141.50241	-712.11749	72.05718	214.51428	-729.16083	-59.20469	679.78381	-665.69055	-46.55809	603.89777	-659.81610	-45.17471	553.90875	
60	1.180	-528.90002	-81.04845	1336.27087	-529.18231	261.79352	1351.32458	-765.36572	216.45470	964.93335	-783.53333	-73.70330	821.88873	-778.65210	-2.69324	952.57874	-685.64874	-19.89783	803.83044	-760.17108	292.35562	830.22046	-678.92145	224.24011	811.71680	-668.14844	266.86484	607.17670	-621.44147	59.81219	568.66418				-607.60626	-4.05991	502.35855	-645.09723	265.60126	557.88623	-590.79272	223.30476	512.38519	-693.52991	269.35449	491.34943	-968.47510	103.08739	997.58087	-665.08008	-70.71616	160.50899	-702.73694	153.99130	212.93147	-765.43958	225.27304	205.05127	-623.42401	-80.90762	156.68153	-882.63641	296.19785	144.62160	-676.24335	51.91021	159.71675	-604.42999	16.83036	169.40756	-561.92145	-40.61423	164.13152	-674.60834	172.57141	156.96719	-594.81335	222.93497	174.04280	-666.15265	298.91919	160.53354	-628.62378	306.44217	161.54076	-560.61603	261.76962	165.45206	-528.42889	304.10101	146.73280	-319.16095	80.74174	1551.69531	-720.41388	292.42081	705.48645	-517.65009	-72.24120	142.57364	-794.78125	172.72755	185.37273				-764.75525	-10.11423	208.40372	-795.38611	51.81269	175.24228	-714.02069	-47.32748	482.02921	-876.03320	-78.59757	141.50241	-711.64343	72.11008	213.89090	-727.73016	-60.47917	677.88208	-662.49963	-47.84329	602.17126	-655.61517	-46.40265	552.90503	
61	1.200	-524.72772	-80.84082	1322.82959	-525.03229	262.04892	1337.98267				-785.22137	-73.97786	816.72595	-781.78235	-2.27745	945.37640	-686.95282	-20.53814	801.29181	-761.37878	293.38757	826.45386	-680.51251	225.38960	809.08032	-665.47333	268.43521	605.83679	-618.35626	58.45087	567.53430				-604.36139	-4.91412	500.96683	-641.35431	266.66150	556.56848	-588.24768	223.87225	511.32065	-691.05829	270.42636	490.57736	-971.24402	103.33847	991.54535	-664.88562	-70.84142	160.62727	-703.05133	154.07620	212.40515	-765.13214	225.45158	205.11897	-623.32098	-80.62386	156.71686	-882.58789	296.13925	144.61490	-676.33142	51.93173	159.58559	-604.59247	17.07738	169.40141	-561.82068	-40.31569	163.85909	-675.26471	172.81590	156.31595	-594.77747	222.77937	173.96347	-666.16766	298.77289	160.68776	-628.61920	306.26581	161.41586	-560.47125	261.67856	165.45525	-528.39661	304.42844	146.85262	-314.66779	80.89699	1537.04309				-517.83179	-72.24009	142.75015	-794.47247	172.77010	185.61386				-764.49725	-10.03289	208.31017	-795.11511	52.03145	175.22305	-710.70313	-47.92453	480.91544	-875.97748	-78.88188	141.21204	-711.17224	71.94666	213.59457	-726.30365	-61.12693	675.05383	-659.20038	-48.75246	600.07794	-652.12280	-47.31326	551.38452	
62	1.220	-520.33655	-79.61966	1308.35083	-520.40674	262.27365	1325.14697				-786.45355	-73.58214	811.82129				-687.69958	-20.55017	798.40186	-763.19922	293.77786	821.65942	-682.09338	227.16608	806.75952	-663.96954	268.96838	603.11603	-614.31073	58.49817	567.14832				-600.61212	-6.27590	499.77606	-638.32556	268.14249	555.01819	-585.16663	225.49361	510.42569	-688.31433	270.81720	489.59927	-974.37988	103.44801	985.44208	-664.91541	-70.71810	160.65724	-702.08630	154.33739	212.02525	-764.98590	225.47035	205.02945	-623.28760	-80.53186	156.80762	-882.67053	296.19333	144.58157	-676.45654	52.02767	159.47990	-604.43292	17.31530	169.20181	-561.67151	-40.32760	163.76074	-674.91833	173.03773	155.87659	-594.75348	222.62868	173.74045	-666.26001	298.77197	160.66643	-628.71198	306.32343	161.49094	-560.58197	261.69153	165.35310	-528.39606	304.35452	146.88464	-310.38681	81.10537	1521.95898				-517.75562	-72.34619	143.01912	-794.32098	172.63206	185.69350				-764.16821	-9.84657	208.24329	-794.98657	52.18163	175.44121	-706.98981	-49.00540	479.94992	-875.97748	-78.88188	141.21204	-710.92078	72.26616	213.17715	-724.62415	-61.70876	671.55316	-655.75604	-49.38065	598.11786	-648.13062	-48.27534	549.99493	
63	1.240	-515.21973	-79.35522	1293.92456	-516.05817	262.72003	1311.95398	-788.00891	-0.26480	929.68469	-787.71387	-73.50655	806.88141				-688.72357	-20.35814	795.79419	-764.96814	294.22723	816.94867	-684.03320	227.85628	803.66693										-597.74835	-6.85396	498.09167	-635.57013	269.13492	553.33551	-582.14398	226.95709	509.19687	-685.13171	272.44229	488.51346	-977.89398	103.31743	979.02734	-664.70850	-70.62749	160.73929	-702.52911	154.19263	211.89864	-764.88116	225.65968	204.86850	-623.14490	-80.46707	156.86530	-882.55408	296.28027	144.78130	-676.08893	52.69747	159.90623	-604.34180	17.15099	168.98051	-561.39697	-40.49625	163.96582	-674.87830	173.00204	156.32256	-594.68927	222.67462	173.75322	-666.17053	298.75943	160.67357	-628.69183	306.30798	161.62665	-560.51984	261.63205	165.38733	-528.46088	304.35309	146.54437	-306.57037	81.21629	1507.24292				-517.65839	-72.19691	142.98903	-794.09369	172.59396	185.71472				-763.53314	-9.64654	208.12950	-794.88513	52.18930	175.43143	-704.14343	-49.05861	479.17224	-875.97748	-78.88188	141.21204	-710.25146	73.03329	213.32367	-723.15033	-62.53722	668.40100	-652.84088	-50.72598	596.55731	-644.86438	-49.46346	548.53235	
64	1.260	-510.74304	-78.38220	1278.80676	-511.21655	263.00317	1297.90454	-790.93445	0.66859	921.83130	-789.01373	-73.38171	801.72211				-690.30615	-20.81963	793.24133	-766.73193	294.93079	812.19580	-685.46405	228.98544	801.24347										-594.66626	-7.81191	496.46835	-632.58466	270.92468	552.37848	-578.74713	228.58493	508.33923	-682.84180	273.09308	487.79926	-980.21527	103.71300	972.34509	-664.67584	-70.33955	160.79543	-702.50793	153.98132	211.68115	-764.46442	225.62367	204.99905	-622.88538	-80.58204	157.21396	-882.66632	296.26215	144.70044	-675.97314	52.59837	159.31343	-604.26306	17.17964	168.88226	-561.14471	-40.38982	163.94487	-675.12091	173.08876	155.62859	-594.61804	222.62421	173.69385	-666.14563	298.65433	160.71533	-628.71198	306.32343	161.49094	-560.52460	261.52573	165.47104	-528.31421	304.31958	146.53575	-302.84525	81.02827	1492.22205				-517.61798	-72.13449	142.67934	-794.00238	172.55695	185.99738				-763.09412	-9.50117	208.26189	-794.51251	52.61518	175.40630	-701.08514	-50.10494	478.10431	-875.97748	-78.88188	141.21204	-709.99005	73.17467	212.99112	-722.43469	-63.05189	665.22131	-649.94690	-51.84822	594.74792	-641.65289	-50.72384	547.00793	
65	1.280	-505.47684	-78.10008	1263.49194	-506.11255	262.75259	1283.72034				-790.37933	-73.15356	796.76978				-691.39502	-21.17765	790.64435	-768.28473	295.46808	807.02710	-687.13654	230.15564	798.00665										-591.06641	-8.44828	495.44571	-629.37262	271.61880	550.92340	-576.18207	228.65689	506.12421	-680.32440	274.08600	486.34106	-982.72876	103.89411	966.04218	-665.24078	-70.15529	160.33949	-701.97559	154.15715	211.54184	-764.34747	225.49203	204.91631	-622.84766	-80.60518	157.23541	-882.61194	296.15863	144.60854	-675.88812	52.83784	159.21819	-604.30780	17.33421	168.90088	-561.07581	-40.43797	163.75444	-675.06799	173.06503	155.68756	-594.57202	222.56667	173.55505	-665.97766	298.53558	160.87218	-628.83813	306.12799	161.69513	-560.34387	261.39066	165.25256	-528.30219	304.37015	146.70094	-299.47208	80.96699	1477.21851				-517.67346	-72.15835	142.68344	-793.92627	172.25114	186.29066				-762.61090	-9.30596	208.36229	-794.42249	52.67295	175.38130	-698.36890	-50.79371	477.87830	-876.00653	-78.66238	141.45602	-709.64691	73.37013	213.06558				-647.35699	-52.70272	593.10291	-638.07031	-50.52951	545.19781	
66	1.300	-500.67670	-76.84943	1247.04431	-500.65817	263.43082	1269.15588				-791.35760	-72.46111	791.11859				-692.32025	-21.15537	787.45343	-769.77795	296.14325	802.07782	-688.16559	231.40480	795.14862										-588.58075	-8.45453	493.72537	-626.53931	272.55161	549.20648	-573.12006	229.70409	504.92279	-677.16553	274.76962	485.11832	-985.31256	104.15298	959.11273	-665.14545	-70.14246	160.30272	-701.59668	154.06798	211.43520	-764.05347	225.43480	204.90041	-622.95416	-80.70560	157.28284	-882.53613	296.14642	144.62457	-675.36548	53.11525	159.12238	-604.07190	17.55317	168.56938	-560.99054	-40.19064	163.60878	-675.00671	172.67563	156.07063	-594.49854	222.41077	173.57611	-666.04260	298.39349	160.90559	-629.14124	306.45239	161.59567	-560.35693	261.26428	165.30742	-528.47522	304.42389	146.69026	-295.92346	80.90029	1461.80908				-517.77051	-72.24590	142.73660	-793.92627	172.25114	186.29066				-762.51959	-9.21465	208.60277	-794.04211	52.63937	175.70224	-696.03876	-51.46863	476.95999	-876.03320	-78.59757	141.50241	-709.04877	73.36578	212.64729				-645.01837	-53.01086	590.90808	-635.15491	-51.55223	544.06348	
